# xmcd
#
# Track frame offsets:
#  150
#  13963
#  25350
#  41878
#  60548
#  75328
#  88208
#  99248
#  116943
#  132008
#  147898
#  163348
#  178365
#  190665
#  204823
#  221420
#  236430
#  253648
#  268723
#  280130
#  293913
#  309090
#
# Disc length: 4334 seconds
#
# Revision: 1
# Processed by: cddbd v1.4PL0 Copyright (c) Steve Scherf et al.
# Submitted via: AltoMP3_Maker 3.0
#
DISCID=3d10ec16
DTITLE=Various Artist - Contemporary Country - The Late 80's
DYEAR=1992
DGENRE=Country
TTITLE0=Better Man
TTITLE1=Cry, Cry, Cry
TTITLE2=I Told You So
TTITLE3=I'll Always Come Back
TTITLE4=I Wonder Do You Think Of Me
TTITLE5=There's A Tear In My Beer
TTITLE6=Set 'Em Up Joe
TTITLE7=Bluest Eyes In Texas
TTITLE8=If You Change Your Mind
TTITLE9=What Am I Gonna Do About You
TTITLE10=Twinkle, Twinkle Lucky Star
TTITLE11=Fishin' In The Dark
TTITLE12=Strong Enough To Bend
TTITLE13=Ocean Front Property
TTITLE14=Cry Myself To Sleep
TTITLE15=Somebody Lied
TTITLE16=Joe Knows How To Live
TTITLE17=The Wanderer
TTITLE18=Timber, I'm Falling In Love
TTITLE19=High Cotton
TTITLE20=Eighteen Wheels And A Dozen Roses
TTITLE21=We Believe In Happy Endings
EXTD=
EXTT0=
EXTT1=
EXTT2=
EXTT3=
EXTT4=
EXTT5=
EXTT6=
EXTT7=
EXTT8=
EXTT9=
EXTT10=
EXTT11=
EXTT12=
EXTT13=
EXTT14=
EXTT15=
EXTT16=
EXTT17=
EXTT18=
EXTT19=
EXTT20=
EXTT21=
PLAYORDER=
